<svg xmlns="http://www.w3.org/2000/svg" width="128" height="128" viewBox="0 0 128 128">
  <defs>
    <linearGradient id="bg" x1="19" y1="11" x2="109" y2="121" gradientUnits="userSpaceOnUse">
      <stop offset="0" stop-color="#b9df9b"/>
      <stop offset="0.52" stop-color="#a8d889"/>
      <stop offset="1" stop-color="#92c877"/>
    </linearGradient>
    <radialGradient id="bgGlow" cx="0" cy="0" r="1" gradientUnits="userSpaceOnUse" gradientTransform="translate(44 35) rotate(52) scale(92 86)">
      <stop offset="0" stop-color="#d5efbd" stop-opacity="0.78"/>
      <stop offset="0.58" stop-color="#b9df9b" stop-opacity="0.18"/>
      <stop offset="1" stop-color="#7fb467" stop-opacity="0"/>
    </radialGradient>
    <linearGradient id="blueCard" x1="65" y1="29" x2="100" y2="100" gradientUnits="userSpaceOnUse">
      <stop offset="0" stop-color="#5aa7ff"/>
      <stop offset="0.55" stop-color="#438ff1"/>
      <stop offset="1" stop-color="#2f78d5"/>
    </linearGradient>
    <linearGradient id="frontCard" x1="32" y1="36" x2="78" y2="104" gradientUnits="userSpaceOnUse">
      <stop offset="0" stop-color="#fffef8"/>
      <stop offset="0.52" stop-color="#fffdf4"/>
      <stop offset="1" stop-color="#f2f0e7"/>
    </linearGradient>
  </defs>

  <!-- Transparent outer canvas keeps the icon from feeling oversized in macOS Dock/Finder. -->
  <g>
    <rect x="12" y="13.5" width="104" height="104" rx="23.5" fill="#5d824b" opacity="0.12"/>
    <rect x="12" y="12" width="104" height="104" rx="23.5" fill="url(#bg)"/>
    <rect x="12" y="12" width="104" height="104" rx="23.5" fill="url(#bgGlow)"/>
  </g>

  <g transform="translate(64 59) scale(0.94) translate(-64 -62)">
    <g transform="translate(79 62) rotate(8) translate(-79 -62)">
      <rect x="55.2" y="28.7" width="48" height="75" rx="9.5" fill="#416037" opacity="0.18"/>
      <rect x="56.2" y="30.2" width="48" height="75" rx="9.5" fill="#416037" opacity="0.1"/>
      <rect x="54" y="26" width="48" height="75" rx="9.5" fill="#20221f"/>
      <rect x="57.5" y="29.5" width="41" height="68" rx="7.2" fill="url(#blueCard)"/>
      <rect x="61" y="33.5" width="34" height="60" rx="5.8" fill="none" stroke="#94c8ff" stroke-width="3" opacity="0.22"/>

      <path d="M58.5 36.5c0-3.9 3.1-7 7-7h25c2.5 0 4.7 1.2 6 3-1.2-.7-2.6-1-4.2-1H66.5c-3.8 0-6.8 3-6.8 6.8v51.5c-.8-1.2-1.2-2.7-1.2-4.3z" fill="#ffffff" opacity="0.19"/>
    </g>

    <g transform="translate(52.5 69) rotate(-7.5) translate(-52.5 -69)">
      <rect x="24.7" y="35.9" width="58" height="75" rx="10.5" fill="#416037" opacity="0.2"/>
      <rect x="25.8" y="37.2" width="58" height="75" rx="10.5" fill="#416037" opacity="0.1"/>
      <rect x="23.5" y="33" width="58" height="75" rx="10.5" fill="#20221f"/>
      <rect x="27" y="36.5" width="51" height="68" rx="8.1" fill="url(#frontCard)"/>
      <path d="M31 42c0-3 2.4-5.5 5.5-5.5H70c2.5 0 4.6 1.6 5.3 3.8-1.1-.7-2.4-1.1-3.9-1.1H37.9c-3 0-5.4 2.4-5.4 5.4v51.7c-1-.9-1.5-2.2-1.5-3.7z" fill="#ffffff" opacity="0.68"/>
      <path d="M28.8 96.7c2.1 5 4.6 8.3 8.7 8.3h27c7.4 0 13.5-5.1 13.5-12.5v3.1c0 5.2-4.2 9.4-9.4 9.4H36.5c-3.5 0-6.4-3.4-7.7-8.3z" fill="#d9d6ca" opacity="0.45"/>
    </g>
  </g>
</svg>
